<svg width="1920" height="118" viewBox="0 0 1920 118" fill="none" xmlns="http://www.w3.org/2000/svg">
<path d="M183.3 64.7129H191.15V67.6629H179.25V64.9629L187.05 53.1629H179.25V50.2129H191.15V52.9129L183.3 64.7129ZM193.229 60.6879C193.229 59.2879 193.504 58.0462 194.054 56.9629C194.621 55.8796 195.379 55.0462 196.329 54.4629C197.296 53.8796 198.371 53.5879 199.554 53.5879C200.588 53.5879 201.488 53.7962 202.254 54.2129C203.038 54.6296 203.663 55.1546 204.129 55.7879V53.8129H207.654V67.6629H204.129V65.6379C203.679 66.2879 203.054 66.8296 202.254 67.2629C201.471 67.6796 200.563 67.8879 199.529 67.8879C198.363 67.8879 197.296 67.5879 196.329 66.9879C195.379 66.3879 194.621 65.5462 194.054 64.4629C193.504 63.3629 193.229 62.1046 193.229 60.6879ZM204.129 60.7379C204.129 59.8879 203.963 59.1629 203.629 58.5629C203.296 57.9462 202.846 57.4796 202.279 57.1629C201.713 56.8296 201.104 56.6629 200.454 56.6629C199.804 56.6629 199.204 56.8212 198.654 57.1379C198.104 57.4546 197.654 57.9212 197.304 58.5379C196.971 59.1379 196.804 59.8546 196.804 60.6879C196.804 61.5212 196.971 62.2546 197.304 62.8879C197.654 63.5046 198.104 63.9796 198.654 64.3129C199.221 64.6462 199.821 64.8129 200.454 64.8129C201.104 64.8129 201.713 64.6546 202.279 64.3379C202.846 64.0046 203.296 63.5379 203.629 62.9379C203.963 62.3212 204.129 61.5879 204.129 60.7379ZM230.098 50.2129V67.6629H226.598V56.3129L221.923 67.6629H219.273L214.573 56.3129V67.6629H211.073V50.2129H215.048L220.598 63.1879L226.148 50.2129H230.098ZM246.633 53.8129V67.6629H243.108V65.9129C242.658 66.5129 242.066 66.9879 241.333 67.3379C240.616 67.6712 239.833 67.8379 238.983 67.8379C237.9 67.8379 236.941 67.6129 236.108 67.1629C235.275 66.6962 234.616 66.0212 234.133 65.1379C233.666 64.2379 233.433 63.1712 233.433 61.9379V53.8129H236.933V61.4379C236.933 62.5379 237.208 63.3879 237.758 63.9879C238.308 64.5712 239.058 64.8629 240.008 64.8629C240.975 64.8629 241.733 64.5712 242.283 63.9879C242.833 63.3879 243.108 62.5379 243.108 61.4379V53.8129H246.633ZM255.386 67.8879C254.253 67.8879 253.236 67.6879 252.336 67.2879C251.436 66.8712 250.72 66.3129 250.186 65.6129C249.67 64.9129 249.386 64.1379 249.336 63.2879H252.861C252.928 63.8212 253.186 64.2629 253.636 64.6129C254.103 64.9629 254.678 65.1379 255.361 65.1379C256.028 65.1379 256.545 65.0046 256.911 64.7379C257.295 64.4712 257.486 64.1296 257.486 63.7129C257.486 63.2629 257.253 62.9296 256.786 62.7129C256.336 62.4796 255.611 62.2296 254.611 61.9629C253.578 61.7129 252.728 61.4546 252.061 61.1879C251.411 60.9212 250.845 60.5129 250.361 59.9629C249.895 59.4129 249.661 58.6712 249.661 57.7379C249.661 56.9712 249.878 56.2712 250.311 55.6379C250.761 55.0046 251.395 54.5046 252.211 54.1379C253.045 53.7712 254.02 53.5879 255.136 53.5879C256.786 53.5879 258.103 54.0046 259.086 54.8379C260.07 55.6546 260.611 56.7629 260.711 58.1629H257.361C257.311 57.6129 257.078 57.1796 256.661 56.8629C256.261 56.5296 255.72 56.3629 255.036 56.3629C254.403 56.3629 253.911 56.4796 253.561 56.7129C253.228 56.9462 253.061 57.2712 253.061 57.6879C253.061 58.1546 253.295 58.5129 253.761 58.7629C254.228 58.9962 254.953 59.2379 255.936 59.4879C256.936 59.7379 257.761 59.9962 258.411 60.2629C259.061 60.5296 259.62 60.9462 260.086 61.5129C260.57 62.0629 260.82 62.7962 260.836 63.7129C260.836 64.5129 260.611 65.2296 260.161 65.8629C259.728 66.4962 259.095 66.9962 258.261 67.3629C257.445 67.7129 256.486 67.8879 255.386 67.8879ZM265.484 52.1629C264.868 52.1629 264.351 51.9712 263.934 51.5879C263.534 51.1879 263.334 50.6962 263.334 50.1129C263.334 49.5296 263.534 49.0462 263.934 48.6629C264.351 48.2629 264.868 48.0629 265.484 48.0629C266.101 48.0629 266.609 48.2629 267.009 48.6629C267.426 49.0462 267.634 49.5296 267.634 50.1129C267.634 50.6962 267.426 51.1879 267.009 51.5879C266.609 51.9712 266.101 52.1629 265.484 52.1629ZM267.209 53.8129V67.6629H263.709V53.8129H267.209ZM269.767 60.7379C269.767 59.3046 270.059 58.0546 270.642 56.9879C271.226 55.9046 272.034 55.0712 273.067 54.4879C274.101 53.8879 275.284 53.5879 276.617 53.5879C278.334 53.5879 279.751 54.0212 280.867 54.8879C282.001 55.7379 282.759 56.9379 283.142 58.4879H279.367C279.167 57.8879 278.826 57.4212 278.342 57.0879C277.876 56.7379 277.292 56.5629 276.592 56.5629C275.592 56.5629 274.801 56.9296 274.217 57.6629C273.634 58.3796 273.342 59.4046 273.342 60.7379C273.342 62.0546 273.634 63.0796 274.217 63.8129C274.801 64.5296 275.592 64.8879 276.592 64.8879C278.009 64.8879 278.934 64.2546 279.367 62.9879H283.142C282.759 64.4879 282.001 65.6796 280.867 66.5629C279.734 67.4462 278.317 67.8879 276.617 67.8879C275.284 67.8879 274.101 67.5962 273.067 67.0129C272.034 66.4129 271.226 65.5796 270.642 64.5129C270.059 63.4296 269.767 62.1712 269.767 60.7379Z" fill="white"/>
<path d="M137.367 53.0454C137.367 50.9901 139.034 49.3239 141.089 49.3239V71.1571H137.367V53.0454Z" fill="#B4006E"/>
<path fill-rule="evenodd" clip-rule="evenodd" d="M129.428 80.3371C134.635 80.3371 141.089 76.382 141.089 71.1751C141.089 65.9681 134.635 61.4811 129.428 61.4811V80.3371Z" fill="#4E3FE4"/>
<path d="M120 70.9091C120 76.116 124.221 80.3371 129.428 80.3371V61.4811C124.221 61.4811 120 65.7021 120 70.9091Z" fill="#B4006E"/>
<path fill-rule="evenodd" clip-rule="evenodd" d="M129.428 80.3193C134.635 80.3193 141.089 76.3643 141.089 71.1573C141.089 65.9504 134.635 61.4633 129.428 61.4633V80.3193Z" fill="#EC3066"/>
<path d="M139.156 44.0788C137.371 46.4361 137.251 49.6792 137.426 52.3947C137.541 54.1706 139.035 55.195 140.687 54.5341C141.928 54.0379 144.986 53.0106 148.708 51.8941C153.194 50.5484 157.613 48.9169 158.012 44.3269C158.508 38.6205 156.523 36.2635 149.328 38.4964C142.133 40.7294 141.826 40.5523 139.156 44.0788Z" fill="#EC3066"/>
<rect x="1740" y="30" width="60" height="58" rx="29" fill="white" fill-opacity="0.2"/>
<path d="M1773.71 61.2929C1773.32 60.9024 1772.68 60.9024 1772.29 61.2929C1771.9 61.6834 1771.9 62.3166 1772.29 62.7071L1773.71 61.2929ZM1778.29 68.7071C1778.68 69.0976 1779.32 69.0976 1779.71 68.7071C1780.1 68.3166 1780.1 67.6834 1779.71 67.2929L1778.29 68.7071ZM1768 63C1764.69 63 1762 60.3137 1762 57H1760C1760 61.4183 1763.58 65 1768 65V63ZM1762 57C1762 53.6863 1764.69 51 1768 51V49C1763.58 49 1760 52.5817 1760 57H1762ZM1768 51C1771.31 51 1774 53.6863 1774 57H1776C1776 52.5817 1772.42 49 1768 49V51ZM1774 57C1774 60.3137 1771.31 63 1768 63V65C1772.42 65 1776 61.4183 1776 57H1774ZM1772.29 62.7071L1778.29 68.7071L1779.71 67.2929L1773.71 61.2929L1772.29 62.7071Z" fill="white"/>
</svg>
