<svg width="420" height="62" viewBox="0 0 420 62" fill="none" xmlns="http://www.w3.org/2000/svg">
<path d="M16.2642 38L18.4119 24.9091H19.6903L17.5426 38H16.2642ZM10.3068 34.3693L10.5114 33.0909H20.2784L20.0739 34.3693H10.3068ZM11.6619 38L13.8097 24.9091H15.0881L12.9403 38H11.6619ZM11.0739 29.8182L11.2784 28.5398H21.0455L20.8409 29.8182H11.0739Z" fill="#878787"/>
<path d="M71.7443 28.1818C71.6676 27.5341 71.3565 27.0312 70.8111 26.6733C70.2656 26.3153 69.5966 26.1364 68.804 26.1364C68.2244 26.1364 67.7173 26.2301 67.2827 26.4176C66.8523 26.6051 66.5156 26.8629 66.2727 27.1911C66.0341 27.5192 65.9148 27.892 65.9148 28.3097C65.9148 28.6591 65.9979 28.9595 66.1641 29.2109C66.3345 29.4581 66.5518 29.6648 66.8161 29.831C67.0803 29.9929 67.3572 30.1271 67.647 30.2337C67.9368 30.3359 68.2031 30.419 68.446 30.483L69.7756 30.8409C70.1165 30.9304 70.4957 31.054 70.9134 31.2116C71.3352 31.3693 71.7379 31.5845 72.1214 31.8572C72.5092 32.1257 72.8288 32.4709 73.0803 32.8928C73.3317 33.3146 73.4574 33.8324 73.4574 34.446C73.4574 35.1534 73.272 35.7926 72.9013 36.3636C72.5348 36.9347 71.9979 37.3885 71.2905 37.7251C70.5874 38.0618 69.733 38.2301 68.7273 38.2301C67.7898 38.2301 66.978 38.0788 66.2919 37.7763C65.6101 37.4737 65.0732 37.0518 64.6811 36.5107C64.2933 35.9695 64.0739 35.3409 64.0227 34.625H65.6591C65.7017 35.1193 65.8679 35.5284 66.1577 35.8523C66.4517 36.1719 66.8224 36.4105 67.2699 36.5682C67.7216 36.7216 68.2074 36.7983 68.7273 36.7983C69.3324 36.7983 69.8757 36.7003 70.3572 36.5043C70.8388 36.304 71.2202 36.027 71.5014 35.6733C71.7827 35.3153 71.9233 34.8977 71.9233 34.4205C71.9233 33.9858 71.8018 33.6321 71.5589 33.3594C71.3161 33.0866 70.9964 32.8651 70.6001 32.6946C70.2038 32.5241 69.7756 32.375 69.3153 32.2472L67.7045 31.7869C66.6818 31.4929 65.8722 31.0732 65.2756 30.5277C64.679 29.9822 64.3807 29.2685 64.3807 28.3864C64.3807 27.6534 64.5788 27.0142 64.9751 26.4688C65.3757 25.919 65.9126 25.4929 66.5859 25.1903C67.2635 24.8835 68.0199 24.7301 68.8551 24.7301C69.6989 24.7301 70.4489 24.8814 71.1051 25.1839C71.7614 25.4822 72.2813 25.8913 72.6648 26.4112C73.0526 26.9311 73.2571 27.5213 73.2784 28.1818H71.7443ZM79.8478 38.2045C78.9615 38.2045 78.1838 37.9936 77.5147 37.5717C76.85 37.1499 76.3301 36.5597 75.9551 35.8011C75.5843 35.0426 75.399 34.1562 75.399 33.142C75.399 32.1193 75.5843 31.2266 75.9551 30.4638C76.3301 29.701 76.85 29.1087 77.5147 28.6868C78.1838 28.2649 78.9615 28.054 79.8478 28.054C80.7342 28.054 81.5098 28.2649 82.1745 28.6868C82.8436 29.1087 83.3635 29.701 83.7342 30.4638C84.1092 31.2266 84.2967 32.1193 84.2967 33.142C84.2967 34.1562 84.1092 35.0426 83.7342 35.8011C83.3635 36.5597 82.8436 37.1499 82.1745 37.5717C81.5098 37.9936 80.7342 38.2045 79.8478 38.2045ZM79.8478 36.8494C80.5211 36.8494 81.0751 36.6768 81.5098 36.3317C81.9444 35.9865 82.2662 35.5327 82.475 34.9702C82.6838 34.4077 82.7882 33.7983 82.7882 33.142C82.7882 32.4858 82.6838 31.8743 82.475 31.3075C82.2662 30.7408 81.9444 30.2827 81.5098 29.9332C81.0751 29.5838 80.5211 29.4091 79.8478 29.4091C79.1745 29.4091 78.6206 29.5838 78.1859 29.9332C77.7512 30.2827 77.4295 30.7408 77.2207 31.3075C77.0119 31.8743 76.9075 32.4858 76.9075 33.142C76.9075 33.7983 77.0119 34.4077 77.2207 34.9702C77.4295 35.5327 77.7512 35.9865 78.1859 36.3317C78.6206 36.6768 79.1745 36.8494 79.8478 36.8494ZM88.108 32.0938V38H86.5994V28.1818H88.0568V29.7159H88.1847C88.4148 29.2173 88.7642 28.8168 89.233 28.5142C89.7017 28.2074 90.3068 28.054 91.0483 28.054C91.7131 28.054 92.2947 28.1903 92.7933 28.4631C93.2919 28.7315 93.6797 29.1406 93.9567 29.6903C94.2337 30.2358 94.3722 30.9261 94.3722 31.7614V38H92.8636V31.8636C92.8636 31.0923 92.6634 30.4915 92.2628 30.0611C91.8622 29.6264 91.3125 29.4091 90.6136 29.4091C90.1321 29.4091 89.7017 29.5135 89.3224 29.7223C88.9474 29.9311 88.6513 30.2358 88.4339 30.6364C88.2166 31.0369 88.108 31.5227 88.108 32.0938ZM101.092 41.8864C100.363 41.8864 99.7367 41.7926 99.2125 41.6051C98.6884 41.4219 98.2516 41.179 97.9022 40.8764C97.557 40.5781 97.2821 40.2585 97.0776 39.9176L98.2793 39.0739C98.4157 39.2528 98.5882 39.4574 98.7971 39.6875C99.0059 39.9219 99.2914 40.1243 99.6536 40.2947C100.02 40.4695 100.499 40.5568 101.092 40.5568C101.884 40.5568 102.539 40.3651 103.054 39.9815C103.57 39.598 103.828 38.9972 103.828 38.179V36.1847H103.7C103.589 36.3636 103.431 36.5852 103.227 36.8494C103.026 37.1094 102.737 37.3416 102.357 37.5462C101.982 37.7464 101.475 37.8466 100.836 37.8466C100.044 37.8466 99.3319 37.6591 98.7012 37.2841C98.0748 36.9091 97.5783 36.3636 97.2118 35.6477C96.8496 34.9318 96.6685 34.0625 96.6685 33.0398C96.6685 32.0341 96.8453 31.1584 97.199 30.4126C97.5527 29.6626 98.0449 29.0831 98.6756 28.674C99.3063 28.2607 100.035 28.054 100.862 28.054C101.501 28.054 102.008 28.1605 102.383 28.3736C102.762 28.5824 103.052 28.821 103.252 29.0895C103.457 29.3537 103.615 29.571 103.725 29.7415H103.879V28.1818H105.336V38.2812C105.336 39.125 105.144 39.8111 104.761 40.3395C104.382 40.8722 103.87 41.2621 103.227 41.5092C102.588 41.7607 101.876 41.8864 101.092 41.8864ZM101.041 36.4915C101.646 36.4915 102.157 36.353 102.575 36.076C102.992 35.799 103.31 35.4006 103.527 34.8807C103.744 34.3608 103.853 33.7386 103.853 33.0142C103.853 32.3068 103.747 31.6825 103.534 31.1413C103.32 30.6001 103.005 30.1761 102.588 29.8693C102.17 29.5625 101.654 29.4091 101.041 29.4091C100.401 29.4091 99.8688 29.571 99.4426 29.8949C99.0208 30.2187 98.7033 30.6534 98.4902 31.1989C98.2814 31.7443 98.177 32.3494 98.177 33.0142C98.177 33.696 98.2836 34.299 98.4966 34.8232C98.714 35.343 99.0336 35.7521 99.4554 36.0504C99.8816 36.3445 100.41 36.4915 101.041 36.4915ZM114.669 32.0938V38H113.16V28.1818H114.617V29.7159H114.745C114.975 29.2173 115.325 28.8168 115.794 28.5142C116.262 28.2074 116.867 28.054 117.609 28.054C118.274 28.054 118.855 28.1903 119.354 28.4631C119.852 28.7315 120.24 29.1406 120.517 29.6903C120.794 30.2358 120.933 30.9261 120.933 31.7614V38H119.424V31.8636C119.424 31.0923 119.224 30.4915 118.823 30.0611C118.423 29.6264 117.873 29.4091 117.174 29.4091C116.693 29.4091 116.262 29.5135 115.883 29.7223C115.508 29.9311 115.212 30.2358 114.994 30.6364C114.777 31.0369 114.669 31.5227 114.669 32.0938ZM126.578 38.2301C125.956 38.2301 125.392 38.1129 124.885 37.8786C124.377 37.6399 123.975 37.2969 123.676 36.8494C123.378 36.3977 123.229 35.8523 123.229 35.2131C123.229 34.6506 123.34 34.1946 123.561 33.8452C123.783 33.4915 124.079 33.2145 124.45 33.0142C124.821 32.8139 125.23 32.6648 125.677 32.5668C126.129 32.4645 126.583 32.3835 127.039 32.3239C127.635 32.2472 128.119 32.1896 128.49 32.1513C128.865 32.1087 129.137 32.0384 129.308 31.9403C129.483 31.8423 129.57 31.6719 129.57 31.429V31.3778C129.57 30.7472 129.397 30.2571 129.052 29.9077C128.711 29.5582 128.194 29.3835 127.499 29.3835C126.779 29.3835 126.214 29.5412 125.805 29.8565C125.396 30.1719 125.108 30.5085 124.942 30.8665L123.51 30.3551C123.766 29.7585 124.107 29.294 124.533 28.9616C124.963 28.625 125.432 28.3906 125.939 28.2585C126.451 28.1222 126.953 28.054 127.448 28.054C127.763 28.054 128.125 28.0923 128.534 28.169C128.948 28.2415 129.346 28.3928 129.73 28.6229C130.118 28.853 130.439 29.2003 130.695 29.6648C130.951 30.1293 131.078 30.7514 131.078 31.5312V38H129.57V36.6705H129.493C129.391 36.8835 129.221 37.1115 128.982 37.3544C128.743 37.5973 128.426 37.804 128.029 37.9744C127.633 38.1449 127.15 38.2301 126.578 38.2301ZM126.809 36.875C127.405 36.875 127.908 36.7578 128.317 36.5234C128.73 36.2891 129.042 35.9865 129.25 35.6158C129.463 35.245 129.57 34.8551 129.57 34.446V33.0653C129.506 33.142 129.365 33.2124 129.148 33.2763C128.935 33.3359 128.688 33.3892 128.407 33.4361C128.13 33.4787 127.859 33.517 127.595 33.5511C127.335 33.581 127.124 33.6065 126.962 33.6278C126.57 33.679 126.203 33.7621 125.863 33.8771C125.526 33.9879 125.253 34.1562 125.044 34.3821C124.84 34.6037 124.738 34.9062 124.738 35.2898C124.738 35.8139 124.931 36.2102 125.319 36.4787C125.711 36.7429 126.208 36.875 126.809 36.875ZM133.832 38V28.1818H135.289V29.7159H135.417C135.622 29.1918 135.952 28.7848 136.408 28.495C136.864 28.201 137.411 28.054 138.051 28.054C138.698 28.054 139.237 28.201 139.668 28.495C140.102 28.7848 140.441 29.1918 140.684 29.7159H140.786C141.038 29.2088 141.415 28.8061 141.918 28.5078C142.421 28.2053 143.024 28.054 143.727 28.054C144.605 28.054 145.323 28.3288 145.881 28.8786C146.439 29.424 146.718 30.2741 146.718 31.429V38H145.21V31.429C145.21 30.7045 145.012 30.1868 144.615 29.8757C144.219 29.5646 143.752 29.4091 143.215 29.4091C142.525 29.4091 141.99 29.6179 141.611 30.0355C141.232 30.4489 141.042 30.973 141.042 31.608V38H139.508V31.2756C139.508 30.7173 139.327 30.2678 138.965 29.9268C138.602 29.5817 138.136 29.4091 137.565 29.4091C137.173 29.4091 136.806 29.5135 136.465 29.7223C136.129 29.9311 135.856 30.2209 135.647 30.5916C135.443 30.9581 135.34 31.3821 135.34 31.8636V38H133.832ZM153.593 38.2045C152.647 38.2045 151.831 37.9957 151.145 37.5781C150.463 37.1562 149.937 36.5682 149.566 35.8139C149.199 35.0554 149.016 34.1733 149.016 33.1676C149.016 32.1619 149.199 31.2756 149.566 30.5085C149.937 29.7372 150.452 29.1364 151.113 28.706C151.778 28.2713 152.553 28.054 153.439 28.054C153.951 28.054 154.456 28.1392 154.954 28.3097C155.453 28.4801 155.907 28.7571 156.316 29.1406C156.725 29.5199 157.051 30.0227 157.294 30.6491C157.537 31.2756 157.658 32.0469 157.658 32.9631V33.6023H150.09V32.2983H156.124C156.124 31.7443 156.013 31.25 155.792 30.8153C155.574 30.3807 155.263 30.0376 154.858 29.7862C154.458 29.5348 153.985 29.4091 153.439 29.4091C152.839 29.4091 152.319 29.5582 151.88 29.8565C151.445 30.1506 151.111 30.5341 150.876 31.0071C150.642 31.4801 150.525 31.9872 150.525 32.5284V33.3977C150.525 34.1392 150.653 34.7678 150.908 35.2834C151.168 35.7947 151.528 36.1847 151.988 36.4531C152.449 36.7173 152.983 36.8494 153.593 36.8494C153.989 36.8494 154.347 36.794 154.667 36.6832C154.991 36.5682 155.27 36.3977 155.504 36.1719C155.738 35.9418 155.92 35.6562 156.047 35.3153L157.505 35.7244C157.351 36.2188 157.094 36.6534 156.731 37.0284C156.369 37.3991 155.922 37.6889 155.389 37.8977C154.856 38.1023 154.258 38.2045 153.593 38.2045Z" fill="#878787"/>
<path d="M326.122 38H324.46L329.267 24.9091H330.903L335.71 38H334.048L330.136 26.9801H330.034L326.122 38ZM326.736 32.8864H333.435V34.2926H326.736V32.8864ZM341.533 38.2045C340.613 38.2045 339.82 37.9872 339.156 37.5526C338.491 37.1179 337.979 36.5192 337.621 35.7564C337.263 34.9936 337.085 34.1222 337.085 33.142C337.085 32.1449 337.268 31.2649 337.634 30.5021C338.005 29.7351 338.521 29.1364 339.181 28.706C339.846 28.2713 340.621 28.054 341.508 28.054C342.198 28.054 342.82 28.1818 343.374 28.4375C343.928 28.6932 344.382 29.0511 344.736 29.5114C345.089 29.9716 345.309 30.5085 345.394 31.1222H343.886C343.771 30.6747 343.515 30.2784 343.119 29.9332C342.727 29.5838 342.198 29.4091 341.533 29.4091C340.945 29.4091 340.43 29.5625 339.987 29.8693C339.548 30.1719 339.205 30.6001 338.957 31.1541C338.714 31.7038 338.593 32.3494 338.593 33.0909C338.593 33.8494 338.712 34.5099 338.951 35.0724C339.194 35.6349 339.535 36.0717 339.974 36.3828C340.417 36.6939 340.937 36.8494 341.533 36.8494C341.925 36.8494 342.281 36.7812 342.601 36.6449C342.92 36.5085 343.191 36.3125 343.413 36.0568C343.634 35.8011 343.792 35.4943 343.886 35.1364H345.394C345.309 35.7159 345.098 36.2379 344.761 36.7024C344.429 37.1626 343.988 37.5291 343.438 37.8018C342.893 38.0703 342.258 38.2045 341.533 38.2045ZM351.869 28.1818V29.4602H346.781V28.1818H351.869ZM348.264 25.8295H349.773V35.1875C349.773 35.6136 349.835 35.9332 349.958 36.1463C350.086 36.3551 350.248 36.4957 350.444 36.5682C350.644 36.6364 350.855 36.6705 351.077 36.6705C351.243 36.6705 351.379 36.6619 351.486 36.6449C351.592 36.6236 351.678 36.6065 351.741 36.5938L352.048 37.9489C351.946 37.9872 351.803 38.0256 351.62 38.0639C351.437 38.1065 351.205 38.1278 350.923 38.1278C350.497 38.1278 350.08 38.0362 349.67 37.853C349.266 37.6697 348.929 37.3906 348.661 37.0156C348.396 36.6406 348.264 36.1676 348.264 35.5966V25.8295ZM354.138 38V28.1818H355.647V38H354.138ZM354.906 26.5455C354.612 26.5455 354.358 26.4453 354.145 26.245C353.936 26.0447 353.832 25.804 353.832 25.5227C353.832 25.2415 353.936 25.0007 354.145 24.8004C354.358 24.6001 354.612 24.5 354.906 24.5C355.2 24.5 355.451 24.6001 355.66 24.8004C355.873 25.0007 355.979 25.2415 355.979 25.5227C355.979 25.804 355.873 26.0447 355.66 26.245C355.451 26.4453 355.2 26.5455 354.906 26.5455ZM362.399 38.2045C361.512 38.2045 360.735 37.9936 360.066 37.5717C359.401 37.1499 358.881 36.5597 358.506 35.8011C358.135 35.0426 357.95 34.1562 357.95 33.142C357.95 32.1193 358.135 31.2266 358.506 30.4638C358.881 29.701 359.401 29.1087 360.066 28.6868C360.735 28.2649 361.512 28.054 362.399 28.054C363.285 28.054 364.061 28.2649 364.725 28.6868C365.394 29.1087 365.914 29.701 366.285 30.4638C366.66 31.2266 366.847 32.1193 366.847 33.142C366.847 34.1562 366.66 35.0426 366.285 35.8011C365.914 36.5597 365.394 37.1499 364.725 37.5717C364.061 37.9936 363.285 38.2045 362.399 38.2045ZM362.399 36.8494C363.072 36.8494 363.626 36.6768 364.061 36.3317C364.495 35.9865 364.817 35.5327 365.026 34.9702C365.235 34.4077 365.339 33.7983 365.339 33.142C365.339 32.4858 365.235 31.8743 365.026 31.3075C364.817 30.7408 364.495 30.2827 364.061 29.9332C363.626 29.5838 363.072 29.4091 362.399 29.4091C361.725 29.4091 361.171 29.5838 360.737 29.9332C360.302 30.2827 359.98 30.7408 359.771 31.3075C359.563 31.8743 359.458 32.4858 359.458 33.142C359.458 33.7983 359.563 34.4077 359.771 34.9702C359.98 35.5327 360.302 35.9865 360.737 36.3317C361.171 36.6768 361.725 36.8494 362.399 36.8494ZM370.659 32.0938V38H369.15V28.1818H370.608V29.7159H370.735C370.966 29.2173 371.315 28.8168 371.784 28.5142C372.252 28.2074 372.858 28.054 373.599 28.054C374.264 28.054 374.846 28.1903 375.344 28.4631C375.843 28.7315 376.23 29.1406 376.507 29.6903C376.784 30.2358 376.923 30.9261 376.923 31.7614V38H375.414V31.8636C375.414 31.0923 375.214 30.4915 374.814 30.0611C374.413 29.6264 373.863 29.4091 373.164 29.4091C372.683 29.4091 372.252 29.5135 371.873 29.7223C371.498 29.9311 371.202 30.2358 370.985 30.6364C370.767 31.0369 370.659 31.5227 370.659 32.0938ZM386.634 30.3807L385.279 30.7642C385.194 30.5384 385.068 30.3189 384.902 30.1058C384.74 29.8885 384.518 29.7095 384.237 29.5689C383.956 29.4283 383.596 29.358 383.157 29.358C382.556 29.358 382.055 29.4964 381.655 29.7734C381.258 30.0462 381.06 30.3935 381.06 30.8153C381.06 31.1903 381.197 31.4865 381.469 31.7038C381.742 31.9212 382.168 32.1023 382.748 32.2472L384.205 32.6051C385.083 32.8182 385.737 33.1442 386.167 33.5831C386.598 34.0178 386.813 34.5781 386.813 35.2642C386.813 35.8267 386.651 36.3295 386.327 36.7727C386.008 37.2159 385.56 37.5653 384.985 37.821C384.41 38.0767 383.741 38.2045 382.978 38.2045C381.976 38.2045 381.148 37.9872 380.491 37.5526C379.835 37.1179 379.42 36.483 379.245 35.6477L380.677 35.2898C380.813 35.8182 381.071 36.2145 381.45 36.4787C381.834 36.7429 382.334 36.875 382.952 36.875C383.655 36.875 384.214 36.7259 384.627 36.4276C385.045 36.125 385.253 35.7628 385.253 35.3409C385.253 35 385.134 34.7145 384.895 34.4844C384.657 34.25 384.29 34.0753 383.796 33.9602L382.16 33.5767C381.26 33.3636 380.6 33.0334 380.178 32.5859C379.76 32.1342 379.552 31.5696 379.552 30.892C379.552 30.3381 379.707 29.848 380.018 29.4219C380.334 28.9957 380.762 28.6612 381.303 28.4183C381.849 28.1754 382.466 28.054 383.157 28.054C384.128 28.054 384.891 28.267 385.445 28.6932C386.003 29.1193 386.4 29.6818 386.634 30.3807Z" fill="#878787"/>
</svg>
