<svg width="414" height="105" viewBox="0 0 414 105" fill="none" xmlns="http://www.w3.org/2000/svg">
<path d="M0 0H414V80C414 93.8071 402.807 105 389 105H25C11.1929 105 0 93.8071 0 80V0Z" fill="#0F1928"/>
<path d="M29.593 47.4966C29.593 45.7695 30.9931 44.3695 32.7201 44.3695V62.7149H29.593V47.4966Z" fill="#B4006E"/>
<path fill-rule="evenodd" clip-rule="evenodd" d="M22.9219 70.4285C27.297 70.4285 32.72 67.1052 32.72 62.7301C32.72 58.355 27.297 54.5847 22.9219 54.5847V70.4285Z" fill="#4E3FE4"/>
<path d="M15 62.5066C15 66.8817 18.5468 70.4285 22.9219 70.4285V54.5847C18.5468 54.5847 15 58.1315 15 62.5066Z" fill="#B4006E"/>
<path fill-rule="evenodd" clip-rule="evenodd" d="M22.9219 70.4135C27.297 70.4135 32.72 67.0902 32.72 62.7151C32.72 58.34 27.297 54.5697 22.9219 54.5697V70.4135Z" fill="#EC3066"/>
<path d="M31.0958 39.9624C29.5963 41.9431 29.4951 44.6681 29.6423 46.9498C29.7386 48.442 30.9943 49.3028 32.3826 48.7474C33.425 48.3305 35.9949 47.4673 39.1219 46.5292C42.8912 45.3984 46.6042 44.0276 46.9396 40.1708C47.3565 35.376 45.6888 33.3955 39.6431 35.2718C33.5974 37.148 33.3392 36.9992 31.0958 39.9624Z" fill="#EC3066"/>
<path d="M61.664 57.404H68.572V60H58.1V57.624L64.964 47.24H58.1V44.644H68.572V47.02L61.664 57.404ZM70.4018 53.862C70.4018 52.63 70.6438 51.5373 71.1278 50.584C71.6264 49.6307 72.2938 48.8973 73.1298 48.384C73.9804 47.8707 74.9264 47.614 75.9678 47.614C76.8771 47.614 77.6691 47.7973 78.3438 48.164C79.0331 48.5307 79.5831 48.9927 79.9938 49.55V47.812H83.0958V60H79.9938V58.218C79.5978 58.79 79.0478 59.2667 78.3438 59.648C77.6544 60.0147 76.8551 60.198 75.9458 60.198C74.9191 60.198 73.9804 59.934 73.1298 59.406C72.2938 58.878 71.6264 58.1373 71.1278 57.184C70.6438 56.216 70.4018 55.1087 70.4018 53.862ZM79.9938 53.906C79.9938 53.158 79.8471 52.52 79.5538 51.992C79.2604 51.4493 78.8644 51.0387 78.3658 50.76C77.8671 50.4667 77.3318 50.32 76.7598 50.32C76.1878 50.32 75.6598 50.4593 75.1758 50.738C74.6918 51.0167 74.2958 51.4273 73.9878 51.97C73.6944 52.498 73.5478 53.1287 73.5478 53.862C73.5478 54.5953 73.6944 55.2407 73.9878 55.798C74.2958 56.3407 74.6918 56.7587 75.1758 57.052C75.6744 57.3453 76.2024 57.492 76.7598 57.492C77.3318 57.492 77.8671 57.3527 78.3658 57.074C78.8644 56.7807 79.2604 56.37 79.5538 55.842C79.8471 55.2993 79.9938 54.654 79.9938 53.906ZM102.846 44.644V60H99.7659V50.012L95.6519 60H93.3199L89.1839 50.012V60H86.1039V44.644H89.6019L94.4859 56.062L99.3699 44.644H102.846ZM117.397 47.812V60H114.295V58.46C113.899 58.988 113.378 59.406 112.733 59.714C112.102 60.0073 111.413 60.154 110.665 60.154C109.712 60.154 108.868 59.956 108.135 59.56C107.402 59.1493 106.822 58.5553 106.397 57.778C105.986 56.986 105.781 56.0473 105.781 54.962V47.812H108.861V54.522C108.861 55.49 109.103 56.238 109.587 56.766C110.071 57.2793 110.731 57.536 111.567 57.536C112.418 57.536 113.085 57.2793 113.569 56.766C114.053 56.238 114.295 55.49 114.295 54.522V47.812H117.397ZM125.1 60.198C124.103 60.198 123.208 60.022 122.416 59.67C121.624 59.3033 120.993 58.812 120.524 58.196C120.069 57.58 119.82 56.898 119.776 56.15H122.878C122.937 56.6193 123.164 57.008 123.56 57.316C123.971 57.624 124.477 57.778 125.078 57.778C125.665 57.778 126.119 57.6607 126.442 57.426C126.779 57.1913 126.948 56.8907 126.948 56.524C126.948 56.128 126.743 55.8347 126.332 55.644C125.936 55.4387 125.298 55.2187 124.418 54.984C123.509 54.764 122.761 54.5367 122.174 54.302C121.602 54.0673 121.103 53.708 120.678 53.224C120.267 52.74 120.062 52.0873 120.062 51.266C120.062 50.5913 120.253 49.9753 120.634 49.418C121.03 48.8607 121.587 48.4207 122.306 48.098C123.039 47.7753 123.897 47.614 124.88 47.614C126.332 47.614 127.491 47.9807 128.356 48.714C129.221 49.4327 129.698 50.408 129.786 51.64H126.838C126.794 51.156 126.589 50.7747 126.222 50.496C125.87 50.2027 125.393 50.056 124.792 50.056C124.235 50.056 123.802 50.1587 123.494 50.364C123.201 50.5693 123.054 50.8553 123.054 51.222C123.054 51.6327 123.259 51.948 123.67 52.168C124.081 52.3733 124.719 52.586 125.584 52.806C126.464 53.026 127.19 53.2533 127.762 53.488C128.334 53.7227 128.825 54.0893 129.236 54.588C129.661 55.072 129.881 55.7173 129.896 56.524C129.896 57.228 129.698 57.8587 129.302 58.416C128.921 58.9733 128.363 59.4133 127.63 59.736C126.911 60.044 126.068 60.198 125.1 60.198ZM133.986 46.36C133.444 46.36 132.989 46.1913 132.622 45.854C132.27 45.502 132.094 45.0693 132.094 44.556C132.094 44.0427 132.27 43.6173 132.622 43.28C132.989 42.928 133.444 42.752 133.986 42.752C134.529 42.752 134.976 42.928 135.328 43.28C135.695 43.6173 135.878 44.0427 135.878 44.556C135.878 45.0693 135.695 45.502 135.328 45.854C134.976 46.1913 134.529 46.36 133.986 46.36ZM135.504 47.812V60H132.424V47.812H135.504ZM137.755 53.906C137.755 52.6447 138.012 51.5447 138.525 50.606C139.039 49.6527 139.75 48.9193 140.659 48.406C141.569 47.878 142.61 47.614 143.783 47.614C145.294 47.614 146.541 47.9953 147.523 48.758C148.521 49.506 149.188 50.562 149.525 51.926H146.203C146.027 51.398 145.727 50.9873 145.301 50.694C144.891 50.386 144.377 50.232 143.761 50.232C142.881 50.232 142.185 50.5547 141.671 51.2C141.158 51.8307 140.901 52.7327 140.901 53.906C140.901 55.0647 141.158 55.9667 141.671 56.612C142.185 57.2427 142.881 57.558 143.761 57.558C145.008 57.558 145.822 57.0007 146.203 55.886H149.525C149.188 57.206 148.521 58.2547 147.523 59.032C146.526 59.8093 145.279 60.198 143.783 60.198C142.61 60.198 141.569 59.9413 140.659 59.428C139.75 58.9 139.039 58.1667 138.525 57.228C138.012 56.2747 137.755 55.1673 137.755 53.906Z" fill="white"/>
<rect x="352" y="30" width="47" height="45" rx="22.5" fill="white" fill-opacity="0.2"/>
<path d="M379.207 54.7929C378.817 54.4024 378.183 54.4024 377.793 54.7929C377.402 55.1834 377.402 55.8166 377.793 56.2071L379.207 54.7929ZM383.793 62.2071C384.183 62.5976 384.817 62.5976 385.207 62.2071C385.598 61.8166 385.598 61.1834 385.207 60.7929L383.793 62.2071ZM373.5 56.5C370.186 56.5 367.5 53.8137 367.5 50.5H365.5C365.5 54.9183 369.082 58.5 373.5 58.5V56.5ZM367.5 50.5C367.5 47.1863 370.186 44.5 373.5 44.5V42.5C369.082 42.5 365.5 46.0817 365.5 50.5H367.5ZM373.5 44.5C376.814 44.5 379.5 47.1863 379.5 50.5H381.5C381.5 46.0817 377.918 42.5 373.5 42.5V44.5ZM379.5 50.5C379.5 53.8137 376.814 56.5 373.5 56.5V58.5C377.918 58.5 381.5 54.9183 381.5 50.5H379.5ZM377.793 56.2071L383.793 62.2071L385.207 60.7929L379.207 54.7929L377.793 56.2071Z" fill="white"/>
</svg>
