<svg width="47" height="45" viewBox="0 0 47 45" fill="none" xmlns="http://www.w3.org/2000/svg">
<rect width="47" height="45" rx="22.5" fill="white" fill-opacity="0.2"/>
<path d="M27.2071 24.7929C26.8166 24.4024 26.1834 24.4024 25.7929 24.7929C25.4024 25.1834 25.4024 25.8166 25.7929 26.2071L27.2071 24.7929ZM31.7929 32.2071C32.1834 32.5976 32.8166 32.5976 33.2071 32.2071C33.5976 31.8166 33.5976 31.1834 33.2071 30.7929L31.7929 32.2071ZM21.5 26.5C18.1863 26.5 15.5 23.8137 15.5 20.5H13.5C13.5 24.9183 17.0817 28.5 21.5 28.5V26.5ZM15.5 20.5C15.5 17.1863 18.1863 14.5 21.5 14.5V12.5C17.0817 12.5 13.5 16.0817 13.5 20.5H15.5ZM21.5 14.5C24.8137 14.5 27.5 17.1863 27.5 20.5H29.5C29.5 16.0817 25.9183 12.5 21.5 12.5V14.5ZM27.5 20.5C27.5 23.8137 24.8137 26.5 21.5 26.5V28.5C25.9183 28.5 29.5 24.9183 29.5 20.5H27.5ZM25.7929 26.2071L31.7929 32.2071L33.2071 30.7929L27.2071 24.7929L25.7929 26.2071Z" fill="white"/>
</svg>
