<svg width="1280" height="118" viewBox="0 0 1280 118" fill="none" xmlns="http://www.w3.org/2000/svg">
<path d="M0 0H1280V93C1280 106.807 1268.81 118 1255 118H25C11.1929 118 0 106.807 0 93V0Z" fill="#0F1928"/>
<path d="M123.3 64.7128H131.15V67.6628H119.25V64.9628L127.05 53.1628H119.25V50.2128H131.15V52.9128L123.3 64.7128ZM133.229 60.6878C133.229 59.2878 133.504 58.0462 134.054 56.9628C134.621 55.8795 135.379 55.0462 136.329 54.4628C137.296 53.8795 138.371 53.5878 139.554 53.5878C140.588 53.5878 141.488 53.7962 142.254 54.2128C143.038 54.6295 143.663 55.1545 144.129 55.7878V53.8128H147.654V67.6628H144.129V65.6378C143.679 66.2878 143.054 66.8295 142.254 67.2628C141.471 67.6795 140.563 67.8878 139.529 67.8878C138.363 67.8878 137.296 67.5878 136.329 66.9878C135.379 66.3878 134.621 65.5462 134.054 64.4628C133.504 63.3628 133.229 62.1045 133.229 60.6878ZM144.129 60.7378C144.129 59.8878 143.963 59.1628 143.629 58.5628C143.296 57.9462 142.846 57.4795 142.279 57.1628C141.713 56.8295 141.104 56.6628 140.454 56.6628C139.804 56.6628 139.204 56.8212 138.654 57.1378C138.104 57.4545 137.654 57.9212 137.304 58.5378C136.971 59.1378 136.804 59.8545 136.804 60.6878C136.804 61.5212 136.971 62.2545 137.304 62.8878C137.654 63.5045 138.104 63.9795 138.654 64.3128C139.221 64.6462 139.821 64.8128 140.454 64.8128C141.104 64.8128 141.713 64.6545 142.279 64.3378C142.846 64.0045 143.296 63.5378 143.629 62.9378C143.963 62.3212 144.129 61.5878 144.129 60.7378ZM170.098 50.2128V67.6628H166.598V56.3128L161.923 67.6628H159.273L154.573 56.3128V67.6628H151.073V50.2128H155.048L160.598 63.1878L166.148 50.2128H170.098ZM186.633 53.8128V67.6628H183.108V65.9128C182.658 66.5128 182.066 66.9878 181.333 67.3378C180.616 67.6712 179.833 67.8378 178.983 67.8378C177.9 67.8378 176.941 67.6128 176.108 67.1628C175.275 66.6962 174.616 66.0212 174.133 65.1378C173.666 64.2378 173.433 63.1712 173.433 61.9378V53.8128H176.933V61.4378C176.933 62.5378 177.208 63.3878 177.758 63.9878C178.308 64.5712 179.058 64.8628 180.008 64.8628C180.975 64.8628 181.733 64.5712 182.283 63.9878C182.833 63.3878 183.108 62.5378 183.108 61.4378V53.8128H186.633ZM195.386 67.8878C194.253 67.8878 193.236 67.6878 192.336 67.2878C191.436 66.8712 190.72 66.3128 190.186 65.6128C189.67 64.9128 189.386 64.1378 189.336 63.2878H192.861C192.928 63.8212 193.186 64.2628 193.636 64.6128C194.103 64.9628 194.678 65.1378 195.361 65.1378C196.028 65.1378 196.545 65.0045 196.911 64.7378C197.295 64.4712 197.486 64.1295 197.486 63.7128C197.486 63.2628 197.253 62.9295 196.786 62.7128C196.336 62.4795 195.611 62.2295 194.611 61.9628C193.578 61.7128 192.728 61.4545 192.061 61.1878C191.411 60.9212 190.845 60.5128 190.361 59.9628C189.895 59.4128 189.661 58.6712 189.661 57.7378C189.661 56.9712 189.878 56.2712 190.311 55.6378C190.761 55.0045 191.395 54.5045 192.211 54.1378C193.045 53.7712 194.02 53.5878 195.136 53.5878C196.786 53.5878 198.103 54.0045 199.086 54.8378C200.07 55.6545 200.611 56.7628 200.711 58.1628H197.361C197.311 57.6128 197.078 57.1795 196.661 56.8628C196.261 56.5295 195.72 56.3628 195.036 56.3628C194.403 56.3628 193.911 56.4795 193.561 56.7128C193.228 56.9462 193.061 57.2712 193.061 57.6878C193.061 58.1545 193.295 58.5128 193.761 58.7628C194.228 58.9962 194.953 59.2378 195.936 59.4878C196.936 59.7378 197.761 59.9962 198.411 60.2628C199.061 60.5295 199.62 60.9462 200.086 61.5128C200.57 62.0628 200.82 62.7962 200.836 63.7128C200.836 64.5128 200.611 65.2295 200.161 65.8628C199.728 66.4962 199.095 66.9962 198.261 67.3628C197.445 67.7128 196.486 67.8878 195.386 67.8878ZM205.484 52.1628C204.868 52.1628 204.351 51.9712 203.934 51.5878C203.534 51.1878 203.334 50.6962 203.334 50.1128C203.334 49.5295 203.534 49.0462 203.934 48.6628C204.351 48.2628 204.868 48.0628 205.484 48.0628C206.101 48.0628 206.609 48.2628 207.009 48.6628C207.426 49.0462 207.634 49.5295 207.634 50.1128C207.634 50.6962 207.426 51.1878 207.009 51.5878C206.609 51.9712 206.101 52.1628 205.484 52.1628ZM207.209 53.8128V67.6628H203.709V53.8128H207.209ZM209.767 60.7378C209.767 59.3045 210.059 58.0545 210.642 56.9878C211.226 55.9045 212.034 55.0712 213.067 54.4878C214.101 53.8878 215.284 53.5878 216.617 53.5878C218.334 53.5878 219.751 54.0212 220.867 54.8878C222.001 55.7378 222.759 56.9378 223.142 58.4878H219.367C219.167 57.8878 218.826 57.4212 218.342 57.0878C217.876 56.7378 217.292 56.5628 216.592 56.5628C215.592 56.5628 214.801 56.9295 214.217 57.6628C213.634 58.3795 213.342 59.4045 213.342 60.7378C213.342 62.0545 213.634 63.0795 214.217 63.8128C214.801 64.5295 215.592 64.8878 216.592 64.8878C218.009 64.8878 218.934 64.2545 219.367 62.9878H223.142C222.759 64.4878 222.001 65.6795 220.867 66.5628C219.734 67.4462 218.317 67.8878 216.617 67.8878C215.284 67.8878 214.101 67.5962 213.067 67.0128C212.034 66.4128 211.226 65.5795 210.642 64.5128C210.059 63.4295 209.767 62.1712 209.767 60.7378Z" fill="white"/>
<path d="M77.3674 53.0453C77.3674 50.9899 79.0336 49.3237 81.089 49.3237V71.157H77.3674V53.0453Z" fill="#B4006E"/>
<path fill-rule="evenodd" clip-rule="evenodd" d="M69.428 80.3371C74.635 80.3371 81.089 76.382 81.089 71.1751C81.089 65.9681 74.635 61.4811 69.428 61.4811V80.3371Z" fill="#4E3FE4"/>
<path d="M60 70.9091C60 76.116 64.2211 80.3371 69.428 80.3371V61.4811C64.2211 61.4811 60 65.7021 60 70.9091Z" fill="#B4006E"/>
<path fill-rule="evenodd" clip-rule="evenodd" d="M69.428 80.3193C74.635 80.3193 81.089 76.3642 81.089 71.1573C81.089 65.9503 74.635 61.4632 69.428 61.4632V80.3193Z" fill="#EC3066"/>
<path d="M79.156 44.0787C77.3713 46.436 77.251 49.6791 77.4261 52.3946C77.5407 54.1705 79.0351 55.195 80.6874 54.534C81.9279 54.0378 84.9864 53.0106 88.708 51.8941C93.1939 50.5483 97.6128 48.9168 98.012 44.3268C98.5082 38.6204 96.5233 36.2634 89.3282 38.4964C82.1332 40.7293 81.8258 40.5522 79.156 44.0787Z" fill="#EC3066"/>
<rect x="1160" y="30" width="60" height="58" rx="29" fill="white" fill-opacity="0.2"/>
<path d="M1193.71 61.2929C1193.32 60.9024 1192.68 60.9024 1192.29 61.2929C1191.9 61.6834 1191.9 62.3166 1192.29 62.7071L1193.71 61.2929ZM1198.29 68.7071C1198.68 69.0976 1199.32 69.0976 1199.71 68.7071C1200.1 68.3166 1200.1 67.6834 1199.71 67.2929L1198.29 68.7071ZM1188 63C1184.69 63 1182 60.3137 1182 57H1180C1180 61.4183 1183.58 65 1188 65V63ZM1182 57C1182 53.6863 1184.69 51 1188 51V49C1183.58 49 1180 52.5817 1180 57H1182ZM1188 51C1191.31 51 1194 53.6863 1194 57H1196C1196 52.5817 1192.42 49 1188 49V51ZM1194 57C1194 60.3137 1191.31 63 1188 63V65C1192.42 65 1196 61.4183 1196 57H1194ZM1192.29 62.7071L1198.29 68.7071L1199.71 67.2929L1193.71 61.2929L1192.29 62.7071Z" fill="white"/>
</svg>
