<svg width="25" height="25" viewBox="0 0 25 25" fill="none" xmlns="http://www.w3.org/2000/svg">
<path d="M4.16677 7.44832L4.16677 17.552L4.16677 17.5521C4.16677 19.4467 4.16677 20.3937 4.56464 20.9413C4.91169 21.419 5.44519 21.7272 6.03239 21.7889C6.70559 21.8596 7.5259 21.3861 9.16672 20.4388L17.9167 15.387C19.5575 14.4396 20.3781 13.9658 20.6534 13.3474C20.8935 12.808 20.8935 12.1918 20.6534 11.6524C20.3782 11.0343 19.5583 10.5609 17.9189 9.61442L17.9167 9.61318L9.16672 4.56136C7.5259 3.61403 6.70559 3.14051 6.03239 3.21126C5.44519 3.27298 4.91169 3.58117 4.56464 4.05884C4.16677 4.60646 4.16677 5.55363 4.16677 7.44819L4.16677 7.44832Z" fill="white" stroke="white" stroke-width="2" stroke-linecap="round" stroke-linejoin="round"/>
</svg>
